:FULLY-SPECIFIED
:FORCE-ALL-JOINTS-BE-3DOF
:DEGREES
2242
root -0.735023 13.8047 -16.6307 911.222 -26.6506 168.975
lfemur 10.9361 -1.25549 -15.0881
ltibia 33.1642 0 0
lfoot -23.9887 36.743 0
ltoes -43.3926 0 0
rfemur -71.4195 -23.184 8.9666
rtibia 73.314 0 0
rfoot -6.35645 13.9643 0
rtoes 3.47021 0 0
lowerback 9.50542 1.89037 -12.8744
upperback -2.99387 0.547947 -1.89135
thorax -8.78754 0.832812 5.10504
lowerneck 1.0029 -11.9903 -12.4099
upperneck 5.19673 -16.7258 10.2399
head 3.28406 -8.40802 4.34484
lclavicle -3.69003e-16 4.20251e-14 0
lhumerus -69.6802 -17.5126 103.861
lradius 102.247 0 0
lwrist 60.725 0 0
lhand -11.7197 422.167 0
lfingers 7.12502 0 0
lthumb 14.3271 -451.653 0
rclavicle -3.69003e-16 4.20251e-14 0
rhumerus 48.9626 -9.86206 -58.7368
rradius 17.084 0 0
rwrist 34.318 0 0
rhand -20.0297 -402.702 0
rfingers 7.12502 0 0
rthumb 6.31116 287.411 0
2243
root -0.740412 13.7956 -16.651 911.471 -26.3412 168.868
lfemur 11.4431 -1.09602 -15.192
ltibia 32.3636 0 0
lfoot -23.7962 36.7696 0
ltoes -43.9027 0 0
rfemur -71.9662 -23.2413 9.09704
rtibia 73.8865 0 0
rfoot -6.71847 14.1729 0
rtoes 3.85119 0 0
lowerback 9.18635 1.93509 -13.0732
upperback -3.02141 0.615552 -1.96483
thorax -8.65054 0.863345 5.12651
lowerneck 0.921105 -12.0168 -12.3584
upperneck 5.19564 -16.7548 10.2746
head 3.29901 -8.41828 4.33995
lclavicle 5.99023e-15 5.1616e-14 0
lhumerus -69.6319 -17.6219 103.908
lradius 102.125 0 0
lwrist 60.8254 0 0
lhand -11.673 422.011 0
lfingers 7.12502 0 0
lthumb 14.3721 -451.493 0
rclavicle 5.99023e-15 5.1616e-14 0
rhumerus 48.9596 -9.79912 -58.792
rradius 17.0717 0 0
rwrist 34.2901 0 0
rhand -20.0279 -402.633 0
rfingers 7.12502 0 0
rthumb 6.31283 287.481 0
2244
root -0.745801 13.7866 -16.6712 911.828 -25.9678 168.714
lfemur 12.0697 -0.927773 -15.3411
ltibia 31.3229 0 0
lfoot -23.5501 36.8233 0
ltoes -44.5773 0 0
rfemur -72.7013 -23.3405 9.26239
rtibia 74.6485 0 0
rfoot -7.2038 14.4298 0
rtoes 4.33483 0 0
lowerback 8.77237 1.9861 -13.3246
upperback -3.06658 0.693873 -2.06068
thorax -8.48138 0.899008 5.15182
lowerneck 0.817096 -12.0534 -12.2905
upperneck 5.19321 -16.7955 10.3189
head 3.31793 -8.43312 4.33317
lclavicle 1.30701e-14 6.41081e-14 0
lhumerus -69.5768 -17.7524 103.964
lradius 101.97 0 0
lwrist 60.9675 0 0
lhand -11.6371 421.764 0
lfingers 7.12502 0 0
lthumb 14.4067 -451.244 0
rclavicle 1.30701e-14 6.41081e-14 0
rhumerus 48.9571 -9.72958 -58.8448
rradius 17.0609 0 0
rwrist 34.237 0 0
rhand -20.031 -402.544 0
rfingers 7.12502 0 0
rthumb 6.30988 287.57 0
2245
root -0.749359 13.7827 -16.678 911.871 -25.9066 168.692
lfemur 12.1613 -0.887111 -15.3624
ltibia 31.1853 0 0
lfoot -23.5103 36.8251 0
ltoes -44.6736 0 0
rfemur -72.8001 -23.3495 9.28041
rtibia 74.7511 0 0
rfoot -7.26191 14.4685 0
rtoes 4.4024 0 0
lowerback 8.72291 1.99674 -13.3746
upperback -3.06842 0.706532 -2.07647
thorax -8.45867 0.905139 5.1608
lowerneck 0.804668 -12.0622 -12.2814
upperneck 5.17017 -16.8039 10.3274
head 3.31398 -8.4364 4.33354
lclavicle 1.3907e-14 6.56854e-14 0
lhumerus -69.5679 -17.7875 103.974
lradius 101.947 0 0
lwrist 61.0064 0 0
lhand -11.6219 421.676 0
lfingers 7.12502 0 0
lthumb 14.4213 -445.404 0
rclavicle 1.3907e-14 6.56854e-14 0
rhumerus 48.9739 -9.73052 -58.8666
rradius 17.0549 0 0
rwrist 34.2298 0 0
rhand -20.0349 -402.54 0
rfingers 7.12502 0 0
rthumb 6.30608 287.574 0
2246
root -0.752917 13.7789 -16.6849 911.893 -25.8763 168.681
lfemur 12.2046 -0.86671 -15.3735
ltibia 31.1194 0 0
lfoot -23.4908 36.8264 0
ltoes -44.7216 0 0
rfemur -72.8497 -23.3534 9.28884
rtibia 74.8013 0 0
rfoot -7.28975 14.487 0
rtoes 4.43428 0 0
lowerback 8.69853 2.00219 -13.3999
upperback -3.06934 0.712959 -2.0844
thorax -8.44755 0.908271 5.1654
lowerneck 0.799161 -12.0668 -12.277
upperneck 5.15675 -16.8083 10.3319
head 3.31139 -8.43817 4.33391
lclavicle 1.43463e-14 6.62492e-14 0
lhumerus -69.5639 -17.8058 103.978
lradius 101.937 0 0
lwrist 61.0272 0 0
lhand -11.6153 421.626 0
lfingers 7.12502 0 0
lthumb 14.4277 -442.068 0
rclavicle 1.43463e-14 6.62492e-14 0
rhumerus 48.9833 -9.73243 -58.8773
rradius 17.0519 0 0
rwrist 34.2262 0 0
rhand -20.0372 -402.538 0
rfingers 7.12502 0 0
rthumb 6.30391 287.576 0
2247
root -0.756476 13.775 -16.6917 911.901 -25.8679 168.678
lfemur 12.211 -0.860407 -15.3778
ltibia 31.1071 0 0
lfoot -23.4862 36.8278 0
ltoes -44.7359 0 0
rfemur -72.8647 -23.3532 9.28989
rtibia 74.8135 0 0
rfoot -7.29495 14.4901 0
rtoes 4.4389 0 0
lowerback 8.6921 2.00418 -13.4083
upperback -3.0696 0.71514 -2.08687
thorax -8.44482 0.909384 5.16706
lowerneck 0.799346 -12.0689 -12.2761
upperneck 5.14777 -16.8103 10.3341
head 3.30902 -8.43905 4.33453
lclavicle 1.45321e-14 6.58335e-14 0
lhumerus -69.5636 -17.8132 103.979
lradius 101.935 0 0
lwrist 61.0369 0 0
lhand -11.6157 421.597 0
lfingers 7.12502 0 0
lthumb 14.4273 -439.985 0
rclavicle 1.45321e-14 6.58335e-14 0
rhumerus 48.9891 -9.73677 -58.8801
rradius 17.051 0 0
rwrist 34.2252 0 0
rhand -20.0386 -402.539 0
rfingers 7.12502 0 0
rthumb 6.30257 287.575 0
2248
root -0.760034 13.7712 -16.6985 911.901 -25.8724 168.678
lfemur 12.1922 -0.86204 -15.3788
ltibia 31.1303 0 0
lfoot -23.4908 36.83 0
ltoes -44.7307 0 0
rfemur -72.8602 -23.3497 9.28574
rtibia 74.802 0 0
rfoot -7.28513 14.483 0
rtoes 4.42468 0 0
lowerback 8.69652 2.0044 -13.4075
upperback -3.06948 0.715062 -2.0863
thorax -8.44729 0.909457 5.16722
lowerneck 0.803996 -12.0699 -12.2776
upperneck 5.13808 -16.8113 10.3353
head 3.30571 -8.43963 4.33562
lclavicle 1.46086e-14 6.44725e-14 0
lhumerus -69.5661 -17.8157 103.978
lradius 101.939 0 0
lwrist 61.0424 0 0
lhand -11.6217 421.57 0
lfingers 7.12502 0 0
lthumb 14.4215 -437.904 0
rclavicle 1.46086e-14 6.44725e-14 0
rhumerus 48.9946 -9.74497 -58.878
rradius 17.0513 0 0
rwrist 34.2257 0 0
rhand -20.0399 -402.543 0
rfingers 7.12502 0 0
rthumb 6.30126 287.571 0
2249
root -0.763592 13.7673 -16.7054 911.902 -25.8809 168.679
lfemur 12.1595 -0.865446 -15.3801
ltibia 31.171 0 0
lfoot -23.4992 36.8335 0
ltoes -44.7206 0 0
rfemur -72.8511 -23.3437 9.27857
rtibia 74.7813 0 0
rfoot -7.26792 14.4705 0
rtoes 4.40004 0 0
lowerback 8.70468 2.00459 -13.4052
upperback -3.06924 0.714712 -2.08507
thorax -8.45175 0.909471 5.16732
lowerneck 0.811882 -12.0715 -12.2802
upperneck 5.1225 -16.8128 10.3372
head 3.30032 -8.44054 4.33741
lclavicle 1.47202e-14 6.22005e-14 0
lhumerus -69.5703 -17.8192 103.977
lradius 101.947 0 0
lwrist 61.0509 0 0
lhand -11.632 421.527 0
lfingers 7.12502 0 0
lthumb 14.4116 -434.575 0
rclavicle 1.47202e-14 6.22005e-14 0
rhumerus 49.0035 -9.75847 -58.8742
rradius 17.0519 0 0
rwrist 34.2267 0 0
rhand -20.0421 -402.548 0
rfingers 7.12502 0 0
rthumb 6.29917 287.565 0
2250
root -0.76715 13.7635 -16.7122 911.909 -25.8845 168.678
lfemur 12.1245 -0.864464 -15.3853
ltibia 31.2111 0 0
lfoot -23.5057 36.839 0
ltoes -44.7197 0 0
rfemur -72.8523 -23.3362 9.27057
rtibia 74.7656 0 0
rfoot -7.25094 14.4577 0
rtoes 4.37341 0 0
lowerback 8.70947 2.00645 -13.4094
upperback -3.06916 0.716075 -2.0856
thorax -8.45502 0.910404 5.16882
lowerneck 0.821777 -12.0752 -12.2827
upperneck 5.09586 -16.8163 10.3413
head 3.29171 -8.44239 4.34013
lclavicle 1.5011e-14 5.90515e-14 0
lhumerus -69.5754 -17.8296 103.975
lradius 101.955 0 0
lwrist 61.0693 0 0
lhand -11.645 421.449 0
lfingers 7.12502 0 0
lthumb 14.3991 -428.747 0
rclavicle 1.5011e-14 5.90515e-14 0
rhumerus 49.0191 -9.77872 -58.8718
rradius 17.0518 0 0
rwrist 34.2272 0 0
rhand -20.0459 -402.557 0
rfingers 7.12502 0 0
rthumb 6.29548 287.557 0
2251
root -0.770709 13.7596 -16.719 911.929 -25.8742 168.67
lfemur 12.0986 -0.852929 -15.3978
ltibia 31.2326 0 0
lfoot -23.5048 36.8472 0
ltoes -44.7426 0 0
rfemur -72.8786 -23.328 9.26395
rtibia 74.7696 0 0
rfoot -7.24181 14.4495 0
rtoes 4.35322 0 0
lowerback 8.70377 2.0117 -13.4277
upperback -3.06952 0.721138 -2.09027
thorax -8.4539 0.913237 5.17314
lowerneck 0.832451 -12.0825 -12.2839
upperneck 5.05299 -16.8233 10.3491
head 3.27873 -8.44578 4.34401
lclavicle 1.56252e-14 5.50598e-14 0
lhumerus -69.5802 -17.853 103.976
lradius 101.961 0 0
lwrist 61.1047 0 0
lhand -11.6593 421.319 0
lfingers 7.12502 0 0
lthumb 14.3853 -419.17 0
rclavicle 1.56252e-14 5.50598e-14 0
rhumerus 49.0451 -9.80716 -58.8739
rradius 17.0503 0 0
rwrist 34.226 0 0
rhand -20.0522 -402.567 0
rfingers 7.12502 0 0
rthumb 6.28939 287.546 0
2252
root -0.774267 13.7557 -16.7259 911.97 -25.8411 168.653
lfemur 12.0934 -0.824681 -15.4212
ltibia 31.2173 0 0
lfoot -23.491 36.8586 0
ltoes -44.8036 0 0
rfemur -72.945 -23.3199 9.26087
rtibia 74.8074 0 0
rfoot -7.24817 14.451 0
rtoes 4.34787 0 0
lowerback 8.68048 2.02206 -13.4679
upperback -3.07058 0.731888 -2.10151
thorax -8.44518 0.918949 5.18175
lowerneck 0.842677 -12.095 -12.2826
upperneck 4.98873 -16.8352 10.3622
head 3.26024 -8.45132 4.34928
lclavicle 1.67072e-14 5.02594e-14 0
lhumerus -69.5837 -17.8951 103.98
lradius 101.961 0 0
lwrist 61.1641 0 0
lhand -11.6734 421.118 0
lfingers 7.12502 0 0
lthumb 14.3717 -404.593 0
rclavicle 1.67072e-14 5.02594e-14 0
rhumerus 49.0849 -9.84523 -58.8837
rradius 17.0463 0 0
rwrist 34.2221 0 0
rhand -20.0619 -402.579 0
rfingers 7.12502 0 0
rthumb 6.28009 287.534 0
2253
root -0.777825 13.7519 -16.7327 912.038 -25.7762 168.623
lfemur 12.1202 -0.773556 -15.459
ltibia 31.1474 0 0
lfoot -23.4586 36.8739 0
ltoes -44.9171 0 0
rfemur -73.0663 -23.3128 9.26354
rtibia 74.8935 0 0
rfoot -7.27763 14.4671 0
rtoes 4.36581 0 0
lowerback 8.63248 2.03925 -13.5377
upperback -3.07261 0.750312 -2.12169
thorax -8.42568 0.928519 5.19607
lowerneck 0.851227 -12.1143 -12.2776
upperneck 4.89791 -16.8535 10.3821
head 3.23509 -8.45963 4.35617
lclavicle 1.84012e-14 4.46847e-14 0
lhumerus -69.585 -17.9619 103.989
lradius 101.953 0 0
lwrist 61.2545 0 0
lhand -11.686 420.828 0
lfingers 7.12502 0 0
lthumb 14.3596 -383.765 0
rclavicle 1.84012e-14 4.46847e-14 0
rhumerus 49.1421 -9.89438 -58.9041
rradius 17.039 0 0
rwrist 34.2145 0 0
rhand -20.0757 -402.593 0
rfingers 7.12502 0 0
rthumb 6.26678 287.519 0
2254
root -0.781384 13.748 -16.7395 912.14 -25.6706 168.577
lfemur 12.1907 -0.693392 -15.5147
ltibia 31.0046 0 0
lfoot -23.4022 36.8936 0
ltoes -45.0976 0 0
rfemur -73.2575 -23.3076 9.27413
rtibia 75.0424 0 0
rfoot -7.33783 14.5028 0
rtoes 4.41544 0 0
lowerback 8.55267 2.06497 -13.645
upperback -3.07589 0.778395 -2.15324
thorax -8.3922 0.942928 5.21756
lowerneck 0.856873 -12.1418 -12.2676
upperneck 4.77536 -16.8798 10.4104
head 3.20213 -8.47132 4.36491
lclavicle 2.08513e-14 3.83696e-14 0
lhumerus -69.583 -18.0595 104.003
lradius 101.934 0 0
lwrist 61.383 0 0
lhand -11.6956 420.432 0
lfingers 7.12502 0 0
lthumb 14.3503 -355.436 0
rclavicle 2.08513e-14 3.83696e-14 0
rhumerus 49.2202 -9.95605 -58.9385
rradius 17.0275 0 0
rwrist 34.202 0 0
rhand -20.0945 -402.609 0
rfingers 7.12502 0 0
rthumb 6.24864 287.503 0
2255
root -0.784942 13.7442 -16.7464 912.283 -25.5154 168.511
lfemur 12.3162 -0.578026 -15.592
ltibia 30.771 0 0
lfoot -23.3161 36.9185 0
ltoes -45.3593 0 0
rfemur -73.5335 -23.3052 9.29485
rtibia 75.2683 0 0
rfoot -7.43637 14.5631 0
rtoes 4.5052 0 0
lowerback 8.43393 2.10095 -13.7975
upperback -3.08068 0.818125 -2.19854
thorax -8.34154 0.963154 5.24765
lowerneck 0.858387 -12.1791 -12.2515
upperneck 4.6159 -16.9155 10.4485
head 3.16021 -8.487 4.37572
lclavicle 2.42018e-14 3.13485e-14 0
lhumerus -69.5768 -18.1936 104.025
lradius 101.901 0 0
lwrist 61.5565 0 0
lhand -11.7008 419.91 0
lfingers 7.12502 0 0
lthumb 14.3454 -318.355 0
rclavicle 2.42018e-14 3.13485e-14 0
rhumerus 49.3227 -10.0317 -58.9897
rradius 17.0109 0 0
rwrist 34.1837 0 0
rhand -20.1191 -402.626 0
rfingers 7.12502 0 0
rthumb 6.22487 287.485 0
